# xmcd CD database file
#
# Track frame offsets:
#	150
#	18565
#	37625
#	52535
#	69070
#	86645
#	107097
#	125372
#	142425
#	159747
#
# Disc length: 2397 seconds
#
# Revision: 0
# Processed by: cddbd v1.5.1PL0 Copyright (c) Steve Scherf et al.
# Submitted via: CDex 1.51
#
DISCID=79095b0a
DTITLE=大橋　純子 - クリスタル・シティー
DYEAR=1994
DGENRE=J-Pop
TTITLE0=クリスタル・シティー
TTITLE1=霧に抱かれて
TTITLE2=FUNKY LITTLE QUEENIE
TTITLE3=男と女のいる舗道
TTITLE4=落日風景
TTITLE5=アラビアン・ナイト
TTITLE6=夜のハイウェイ
TTITLE7=炎のヒロイン
TTITLE8=風のシルエット
TTITLE9=LIKE A SEA GULL
EXTD=YEAR: 1994. 5.25(1977.11.25)
EXTT0=
EXTT1=
EXTT2=
EXTT3=
EXTT4=
EXTT5=
EXTT6=
EXTT7=
EXTT8=
EXTT9=
PLAYORDER=
